<svg version="1.0" preserveAspectRatio="xMidYMid meet" viewBox="12 106.499997444 359.25 151.49999636400003" zoomAndPan="magnify"
    xmlns:xlink="http://www.w3.org/1999/xlink"
    xmlns="http://www.w3.org/2000/svg" style="max-height: 500px" width="359.25" height="151.49999636400003">
    <defs>
        <g />
        <clipPath id="190a74ca9a">
            <path clip-rule="nonzero" d="M 65 110.921875 L 273 110.921875 L 273 202 L 65 202 Z M 65 110.921875" />
        </clipPath>
        <clipPath id="a66bf62078">
            <path clip-rule="nonzero" d="M 257.796875 130.007812 L 322.914062 130.007812 L 322.914062 199.855469 L 257.796875 199.855469 Z M 257.796875 130.007812" />
        </clipPath>
        <clipPath id="efd42fffde">
            <path clip-rule="nonzero" d="M 273.015625 188.183594 L 301.335938 188.183594 L 301.335938 215.921875 L 273.015625 215.921875 Z M 273.015625 188.183594" />
        </clipPath>
        <clipPath id="13985ba0c2">
            <path clip-rule="nonzero" d="M 139.300781 188.183594 L 167.621094 188.183594 L 167.621094 215.921875 L 139.300781 215.921875 Z M 139.300781 188.183594" />
        </clipPath>
        <clipPath id="7f483392e9">
            <path clip-rule="nonzero" d="M 60.441406 158 L 81 158 L 81 169 L 60.441406 169 Z M 60.441406 158" />
        </clipPath>
    </defs>
    <g clip-path="url(#190a74ca9a)">
        <path fill-rule="nonzero" fill-opacity="1" d="M 272.414062 116.734375 L 255.652344 195.746094 C 254.976562 198.945312 251.828125 201.550781 248.636719 201.550781 L 171.507812 201.550781 C 170.46875 201.550781 169.75 200.746094 169.886719 199.714844 C 170.945312 191.601562 165.394531 185.234375 157.246094 185.234375 C 149.121094 185.234375 140.878906 191.582031 138.480469 199.683594 C 138.179688 200.726562 137.109375 201.550781 136.046875 201.550781 L 126.507812 201.550781 C 123.308594 201.550781 121.261719 198.945312 121.9375 195.746094 L 123.246094 189.570312 L 70.464844 189.570312 C 67.59375 189.570312 65.269531 187.238281 65.269531 184.363281 C 65.269531 181.488281 67.59375 179.152344 70.464844 179.152344 L 138.863281 179.152344 C 141.734375 179.152344 144.0625 176.820312 144.0625 173.945312 C 144.0625 171.070312 141.734375 168.734375 138.863281 168.734375 L 100.675781 168.734375 C 97.804688 168.734375 95.476562 166.402344 95.476562 163.527344 C 95.476562 160.652344 97.804688 158.320312 100.675781 158.320312 L 143.28125 158.320312 C 146.148438 158.320312 148.476562 155.984375 148.476562 153.109375 C 148.476562 150.234375 146.148438 147.902344 143.28125 147.902344 L 82.976562 147.902344 C 80.109375 147.902344 77.78125 145.566406 77.78125 142.691406 C 77.78125 139.816406 80.109375 137.484375 82.976562 137.484375 L 147.699219 137.484375 C 150.566406 137.484375 152.894531 135.148438 152.894531 132.277344 C 152.894531 129.402344 150.566406 127.066406 147.699219 127.066406 L 100.675781 127.066406 C 97.804688 127.066406 95.476562 124.734375 95.476562 121.859375 C 95.476562 118.984375 97.804688 116.648438 100.675781 116.648438 L 138.71875 116.648438 C 139.425781 113.484375 142.5625 110.921875 145.722656 110.921875 L 267.839844 110.921875 C 271.042969 110.921875 273.089844 113.523438 272.414062 116.734375" fill="#e60012" />
    </g>
    <g clip-path="url(#a66bf62078)">
        <path fill-rule="nonzero" fill-opacity="1" d="M 320.472656 160.660156 L 317.964844 158.253906 C 317.523438 157.832031 317.128906 157.339844 316.789062 156.777344 L 302.054688 132.515625 C 301.089844 130.933594 299.363281 130.023438 297.308594 130.023438 L 274.433594 130.023438 C 273.097656 130.023438 271.78125 131.113281 271.496094 132.453125 L 257.90625 196.558594 C 257.523438 198.359375 258.671875 199.820312 260.464844 199.820312 L 272.144531 199.820312 L 272.292969 199.355469 C 274.847656 191.304688 282.871094 185.234375 290.960938 185.234375 C 299.050781 185.234375 304.503906 191.304688 303.644531 199.355469 L 303.59375 199.820312 L 309.277344 199.820312 C 313.042969 199.820312 316.753906 196.75 317.554688 192.976562 L 322.679688 168.820312 C 323.355469 165.625 322.550781 162.648438 320.472656 160.660156" fill="#e60012" />
    </g>
    <g clip-path="url(#efd42fffde)">
        <path fill-rule="nonzero" fill-opacity="1" d="M 285.722656 209.007812 C 281.90625 209.007812 279.460938 205.894531 280.273438 202.070312 C 281.082031 198.246094 284.847656 195.132812 288.664062 195.132812 C 292.480469 195.132812 294.925781 198.246094 294.113281 202.070312 C 293.304688 205.894531 289.539062 209.007812 285.722656 209.007812 Z M 290.128906 188.222656 C 282.511719 188.222656 274.996094 194.433594 273.375 202.070312 C 271.757812 209.707031 276.636719 215.921875 284.257812 215.921875 C 291.875 215.921875 299.390625 209.707031 301.007812 202.070312 C 302.628906 194.433594 297.746094 188.222656 290.128906 188.222656" fill="#e60012" />
    </g>
    <g clip-path="url(#13985ba0c2)">
        <path fill-rule="nonzero" fill-opacity="1" d="M 152.011719 209.007812 C 148.195312 209.007812 145.75 205.894531 146.558594 202.070312 C 147.371094 198.246094 151.136719 195.132812 154.953125 195.132812 C 158.769531 195.132812 161.210938 198.246094 160.402344 202.070312 C 159.589844 205.894531 155.824219 209.007812 152.011719 209.007812 Z M 156.417969 188.222656 C 148.800781 188.222656 141.285156 194.433594 139.664062 202.070312 C 138.046875 209.707031 142.925781 215.921875 150.542969 215.921875 C 158.160156 215.921875 165.679688 209.707031 167.296875 202.070312 C 168.917969 194.433594 164.035156 188.222656 156.417969 188.222656" fill="#e60012" />
    </g>
    <path fill-rule="nonzero" fill-opacity="1" d="M 294.265625 136.273438 L 280.9375 136.273438 C 278.71875 136.273438 276.542969 138.074219 276.070312 140.292969 L 272.402344 157.597656 C 271.929688 159.820312 273.34375 161.621094 275.5625 161.621094 L 300.234375 161.621094 C 303.425781 161.621094 306.09375 158.0625 304.90625 155.390625 L 297.234375 138.085938 C 296.730469 136.953125 295.617188 136.273438 294.265625 136.273438" fill="#ffffff" />
    <path fill-rule="nonzero" fill-opacity="1" d="M 87.664062 121.855469 C 87.664062 124.734375 85.335938 127.066406 82.46875 127.066406 L 72.875 127.066406 C 70.007812 127.066406 67.679688 124.734375 67.679688 121.855469 C 67.679688 118.980469 70.007812 116.648438 72.875 116.648438 L 82.46875 116.648438 C 85.335938 116.648438 87.664062 118.980469 87.664062 121.855469" fill="#e60012" />
    <g clip-path="url(#7f483392e9)">
        <path fill-rule="nonzero" fill-opacity="1" d="M 80.460938 163.527344 C 80.460938 166.402344 78.132812 168.734375 75.265625 168.734375 L 65.664062 168.734375 C 62.792969 168.734375 60.46875 166.402344 60.46875 163.527344 C 60.46875 160.652344 62.792969 158.320312 65.664062 158.320312 L 75.265625 158.320312 C 78.132812 158.320312 80.460938 160.652344 80.460938 163.527344" fill="#e60012" />
    </g>
    <g fill-opacity="0.4" fill="#fafafa">
        <g transform="translate(165.349861, 182.629445)">
            <g>
                <path d="M 16.6875 -26.65625 C 12.3125 -26.65625 8.738281 -28.09375 5.96875 -30.96875 C 3.207031 -33.851562 1.828125 -37.785156 1.828125 -42.765625 C 1.828125 -46.035156 2.460938 -48.890625 3.734375 -51.328125 C 5.003906 -53.765625 6.757812 -55.628906 9 -56.921875 C 11.25 -58.222656 13.8125 -58.875 16.6875 -58.875 C 21.125 -58.875 24.722656 -57.421875 27.484375 -54.515625 C 30.253906 -51.609375 31.640625 -47.691406 31.640625 -42.765625 C 31.640625 -37.785156 30.253906 -33.851562 27.484375 -30.96875 C 24.722656 -28.09375 21.125 -26.65625 16.6875 -26.65625 Z M 51.078125 -58.140625 L 63.03125 -58.140625 L 23.34375 0 L 11.375 0 Z M 16.6875 -34.546875 C 18.1875 -34.546875 19.378906 -35.207031 20.265625 -36.53125 C 21.148438 -37.863281 21.59375 -39.941406 21.59375 -42.765625 C 21.59375 -45.585938 21.148438 -47.660156 20.265625 -48.984375 C 19.378906 -50.316406 18.1875 -50.984375 16.6875 -50.984375 C 15.25 -50.984375 14.070312 -50.304688 13.15625 -48.953125 C 12.25 -47.597656 11.796875 -45.535156 11.796875 -42.765625 C 11.796875 -39.992188 12.25 -37.929688 13.15625 -36.578125 C 14.070312 -35.222656 15.25 -34.546875 16.6875 -34.546875 Z M 57.71875 0.75 C 53.289062 0.75 49.707031 -0.6875 46.96875 -3.5625 C 44.226562 -6.445312 42.859375 -10.378906 42.859375 -15.359375 C 42.859375 -20.285156 44.238281 -24.203125 47 -27.109375 C 49.769531 -30.015625 53.34375 -31.46875 57.71875 -31.46875 C 62.144531 -31.46875 65.742188 -30.015625 68.515625 -27.109375 C 71.285156 -24.203125 72.671875 -20.285156 72.671875 -15.359375 C 72.671875 -10.378906 71.285156 -6.445312 68.515625 -3.5625 C 65.742188 -0.6875 62.144531 0.75 57.71875 0.75 Z M 57.71875 -7.140625 C 59.207031 -7.140625 60.394531 -7.800781 61.28125 -9.125 C 62.175781 -10.457031 62.625 -12.535156 62.625 -15.359375 C 62.625 -18.179688 62.175781 -20.253906 61.28125 -21.578125 C 60.394531 -22.910156 59.207031 -23.578125 57.71875 -23.578125 C 56.21875 -23.578125 55.023438 -22.910156 54.140625 -21.578125 C 53.253906 -20.253906 52.8125 -18.179688 52.8125 -15.359375 C 52.8125 -12.535156 53.253906 -10.457031 54.140625 -9.125 C 55.023438 -7.800781 56.21875 -7.140625 57.71875 -7.140625 Z M 57.71875 -7.140625" />
            </g>
        </g>
    </g>
    <g fill-opacity="1" fill="#fafafa">
        <g transform="translate(165.349861, 182.629445)">
            <g>
                <path d="M 16.6875 -26.65625 C 12.3125 -26.65625 8.738281 -28.09375 5.96875 -30.96875 C 3.207031 -33.851562 1.828125 -37.785156 1.828125 -42.765625 C 1.828125 -46.035156 2.460938 -48.890625 3.734375 -51.328125 C 5.003906 -53.765625 6.757812 -55.628906 9 -56.921875 C 11.25 -58.222656 13.8125 -58.875 16.6875 -58.875 C 21.125 -58.875 24.722656 -57.421875 27.484375 -54.515625 C 30.253906 -51.609375 31.640625 -47.691406 31.640625 -42.765625 C 31.640625 -37.785156 30.253906 -33.851562 27.484375 -30.96875 C 24.722656 -28.09375 21.125 -26.65625 16.6875 -26.65625 Z M 51.078125 -58.140625 L 63.03125 -58.140625 L 23.34375 0 L 11.375 0 Z M 16.6875 -34.546875 C 18.1875 -34.546875 19.378906 -35.207031 20.265625 -36.53125 C 21.148438 -37.863281 21.59375 -39.941406 21.59375 -42.765625 C 21.59375 -45.585938 21.148438 -47.660156 20.265625 -48.984375 C 19.378906 -50.316406 18.1875 -50.984375 16.6875 -50.984375 C 15.25 -50.984375 14.070312 -50.304688 13.15625 -48.953125 C 12.25 -47.597656 11.796875 -45.535156 11.796875 -42.765625 C 11.796875 -39.992188 12.25 -37.929688 13.15625 -36.578125 C 14.070312 -35.222656 15.25 -34.546875 16.6875 -34.546875 Z M 57.71875 0.75 C 53.289062 0.75 49.707031 -0.6875 46.96875 -3.5625 C 44.226562 -6.445312 42.859375 -10.378906 42.859375 -15.359375 C 42.859375 -20.285156 44.238281 -24.203125 47 -27.109375 C 49.769531 -30.015625 53.34375 -31.46875 57.71875 -31.46875 C 62.144531 -31.46875 65.742188 -30.015625 68.515625 -27.109375 C 71.285156 -24.203125 72.671875 -20.285156 72.671875 -15.359375 C 72.671875 -10.378906 71.285156 -6.445312 68.515625 -3.5625 C 65.742188 -0.6875 62.144531 0.75 57.71875 0.75 Z M 57.71875 -7.140625 C 59.207031 -7.140625 60.394531 -7.800781 61.28125 -9.125 C 62.175781 -10.457031 62.625 -12.535156 62.625 -15.359375 C 62.625 -18.179688 62.175781 -20.253906 61.28125 -21.578125 C 60.394531 -22.910156 59.207031 -23.578125 57.71875 -23.578125 C 56.21875 -23.578125 55.023438 -22.910156 54.140625 -21.578125 C 53.253906 -20.253906 52.8125 -18.179688 52.8125 -15.359375 C 52.8125 -12.535156 53.253906 -10.457031 54.140625 -9.125 C 55.023438 -7.800781 56.21875 -7.140625 57.71875 -7.140625 Z M 57.71875 -7.140625" />
            </g>
        </g>
    </g>
    <g fill-opacity="1" fill="#242424">
        <g transform="translate(147.425606, 250.360032)">
            <g>
                <path d="M 14.125 -27.25 C 17.550781 -27.25 20.367188 -26.550781 22.578125 -25.15625 C 24.785156 -23.769531 25.910156 -21.71875 25.953125 -19 L 25.953125 -18.53125 L 17.90625 -18.53125 L 17.90625 -18.6875 C 17.90625 -19.457031 17.617188 -20.101562 17.046875 -20.625 C 16.472656 -21.144531 15.601562 -21.40625 14.4375 -21.40625 C 13.300781 -21.40625 12.425781 -21.234375 11.8125 -20.890625 C 11.195312 -20.554688 10.890625 -20.144531 10.890625 -19.65625 C 10.890625 -18.957031 11.304688 -18.4375 12.140625 -18.09375 C 12.972656 -17.757812 14.3125 -17.410156 16.15625 -17.046875 C 18.3125 -16.609375 20.082031 -16.148438 21.46875 -15.671875 C 22.851562 -15.191406 24.0625 -14.40625 25.09375 -13.3125 C 26.132812 -12.21875 26.671875 -10.738281 26.703125 -8.875 C 26.703125 -5.707031 25.628906 -3.359375 23.484375 -1.828125 C 21.347656 -0.296875 18.488281 0.46875 14.90625 0.46875 C 10.726562 0.46875 7.476562 -0.226562 5.15625 -1.625 C 2.832031 -3.03125 1.671875 -5.507812 1.671875 -9.0625 L 9.8125 -9.0625 C 9.8125 -7.71875 10.160156 -6.816406 10.859375 -6.359375 C 11.554688 -5.910156 12.644531 -5.6875 14.125 -5.6875 C 15.21875 -5.6875 16.117188 -5.800781 16.828125 -6.03125 C 17.546875 -6.269531 17.90625 -6.75 17.90625 -7.46875 C 17.90625 -8.125 17.507812 -8.613281 16.71875 -8.9375 C 15.925781 -9.257812 14.632812 -9.601562 12.84375 -9.96875 C 10.664062 -10.4375 8.863281 -10.921875 7.4375 -11.421875 C 6.007812 -11.929688 4.765625 -12.769531 3.703125 -13.9375 C 2.640625 -15.101562 2.109375 -16.6875 2.109375 -18.6875 C 2.109375 -21.613281 3.238281 -23.769531 5.5 -25.15625 C 7.769531 -26.550781 10.644531 -27.25 14.125 -27.25 Z M 14.125 -27.25" />
            </g>
        </g>
    </g>
    <g fill-opacity="1" fill="#242424">
        <g transform="translate(173.2134, 250.360032)">
            <g>
                <path d="M 12.5 -21.015625 C 15.632812 -21.015625 18.1875 -20.488281 20.15625 -19.4375 C 22.132812 -18.382812 23.125 -16.679688 23.125 -14.328125 L 23.125 -6.3125 C 23.125 -5.863281 23.226562 -5.492188 23.4375 -5.203125 C 23.644531 -4.921875 23.953125 -4.78125 24.359375 -4.78125 L 25.765625 -4.78125 L 25.765625 -0.3125 C 25.691406 -0.257812 25.488281 -0.175781 25.15625 -0.0625 C 24.832031 0.0507812 24.375 0.164062 23.78125 0.28125 C 23.1875 0.40625 22.5 0.46875 21.71875 0.46875 C 20.207031 0.46875 18.96875 0.242188 18 -0.203125 C 17.03125 -0.660156 16.363281 -1.296875 16 -2.109375 C 15.007812 -1.328125 13.90625 -0.703125 12.6875 -0.234375 C 11.46875 0.234375 10.039062 0.46875 8.40625 0.46875 C 3.582031 0.46875 1.171875 -1.453125 1.171875 -5.296875 C 1.171875 -7.296875 1.707031 -8.816406 2.78125 -9.859375 C 3.851562 -10.910156 5.398438 -11.628906 7.421875 -12.015625 C 9.453125 -12.410156 12.101562 -12.609375 15.375 -12.609375 L 15.375 -13.625 C 15.375 -14.425781 15.09375 -15.035156 14.53125 -15.453125 C 13.976562 -15.867188 13.257812 -16.078125 12.375 -16.078125 C 11.570312 -16.078125 10.878906 -15.929688 10.296875 -15.640625 C 9.710938 -15.359375 9.421875 -14.90625 9.421875 -14.28125 L 9.421875 -14.125 L 1.796875 -14.125 C 1.765625 -14.257812 1.75 -14.441406 1.75 -14.671875 C 1.75 -16.617188 2.675781 -18.160156 4.53125 -19.296875 C 6.382812 -20.441406 9.039062 -21.015625 12.5 -21.015625 Z M 15.375 -8.953125 C 13.164062 -8.953125 11.535156 -8.710938 10.484375 -8.234375 C 9.429688 -7.753906 8.90625 -7.113281 8.90625 -6.3125 C 8.90625 -5.007812 9.789062 -4.359375 11.5625 -4.359375 C 12.570312 -4.359375 13.457031 -4.628906 14.21875 -5.171875 C 14.988281 -5.722656 15.375 -6.398438 15.375 -7.203125 Z M 15.375 -8.953125" />
            </g>
        </g>
    </g>
    <g fill-opacity="1" fill="#242424">
        <g transform="translate(196.861812, 250.360032)">
            <g>
                <path d="M 7.78125 0 L 0 -20.546875 L 8.328125 -20.546875 L 12.109375 -7.75 L 12.375 -7.75 L 16.15625 -20.546875 L 23.78125 -20.546875 L 15.921875 0 Z M 7.78125 0" />
            </g>
        </g>
    </g>
    <g fill-opacity="1" fill="#242424">
        <g transform="translate(218.331916, 250.360032)">
            <g>
                <path d="M 12.96875 -21.015625 C 16.726562 -21.015625 19.597656 -20.128906 21.578125 -18.359375 C 23.566406 -16.597656 24.5625 -13.90625 24.5625 -10.28125 L 24.5625 -8.953125 L 9.140625 -8.953125 C 9.140625 -7.472656 9.46875 -6.351562 10.125 -5.59375 C 10.789062 -4.84375 11.835938 -4.46875 13.265625 -4.46875 C 14.566406 -4.46875 15.519531 -4.738281 16.125 -5.28125 C 16.738281 -5.832031 17.046875 -6.5625 17.046875 -7.46875 L 24.5625 -7.46875 C 24.5625 -4.976562 23.613281 -3.03125 21.71875 -1.625 C 19.820312 -0.226562 17.054688 0.46875 13.421875 0.46875 C 9.609375 0.46875 6.648438 -0.414062 4.546875 -2.1875 C 2.453125 -3.96875 1.40625 -6.664062 1.40625 -10.28125 C 1.40625 -13.800781 2.425781 -16.46875 4.46875 -18.28125 C 6.519531 -20.101562 9.351562 -21.015625 12.96875 -21.015625 Z M 13.265625 -16.078125 C 10.828125 -16.078125 9.46875 -14.921875 9.1875 -12.609375 L 16.734375 -12.609375 C 16.734375 -13.671875 16.425781 -14.515625 15.8125 -15.140625 C 15.207031 -15.765625 14.359375 -16.078125 13.265625 -16.078125 Z M 13.265625 -16.078125" />
            </g>
        </g>
    </g>
    <g fill-opacity="1" fill="#242424">
        <g transform="translate(241.980326, 250.360032)">
            <g>
                <path d="M 14.828125 -21.0625 C 15.421875 -21.0625 15.953125 -20.988281 16.421875 -20.84375 C 16.890625 -20.695312 17.125 -20.613281 17.125 -20.59375 L 17.125 -14.09375 L 14.640625 -14.09375 C 13.023438 -14.09375 11.859375 -13.675781 11.140625 -12.84375 C 10.429688 -12.007812 10.078125 -10.773438 10.078125 -9.140625 L 10.078125 0 L 2.328125 0 L 2.328125 -20.546875 L 8.671875 -20.546875 L 9.1875 -17.4375 C 9.65625 -18.632812 10.394531 -19.535156 11.40625 -20.140625 C 12.414062 -20.753906 13.554688 -21.0625 14.828125 -21.0625 Z M 14.828125 -21.0625" />
            </g>
        </g>
    </g>
    <g fill-opacity="0.4" fill="#fc8c06">
        <g transform="translate(16.973672, 248.600681)">
            <g>
                <path d="M 14.125 -27.25 C 17.550781 -27.25 20.367188 -26.550781 22.578125 -25.15625 C 24.785156 -23.769531 25.910156 -21.71875 25.953125 -19 L 25.953125 -18.53125 L 17.90625 -18.53125 L 17.90625 -18.6875 C 17.90625 -19.457031 17.617188 -20.101562 17.046875 -20.625 C 16.472656 -21.144531 15.601562 -21.40625 14.4375 -21.40625 C 13.300781 -21.40625 12.425781 -21.234375 11.8125 -20.890625 C 11.195312 -20.554688 10.890625 -20.144531 10.890625 -19.65625 C 10.890625 -18.957031 11.304688 -18.4375 12.140625 -18.09375 C 12.972656 -17.757812 14.3125 -17.410156 16.15625 -17.046875 C 18.3125 -16.609375 20.082031 -16.148438 21.46875 -15.671875 C 22.851562 -15.191406 24.0625 -14.40625 25.09375 -13.3125 C 26.132812 -12.21875 26.671875 -10.738281 26.703125 -8.875 C 26.703125 -5.707031 25.628906 -3.359375 23.484375 -1.828125 C 21.347656 -0.296875 18.488281 0.46875 14.90625 0.46875 C 10.726562 0.46875 7.476562 -0.226562 5.15625 -1.625 C 2.832031 -3.03125 1.671875 -5.507812 1.671875 -9.0625 L 9.8125 -9.0625 C 9.8125 -7.71875 10.160156 -6.816406 10.859375 -6.359375 C 11.554688 -5.910156 12.644531 -5.6875 14.125 -5.6875 C 15.21875 -5.6875 16.117188 -5.800781 16.828125 -6.03125 C 17.546875 -6.269531 17.90625 -6.75 17.90625 -7.46875 C 17.90625 -8.125 17.507812 -8.613281 16.71875 -8.9375 C 15.925781 -9.257812 14.632812 -9.601562 12.84375 -9.96875 C 10.664062 -10.4375 8.863281 -10.921875 7.4375 -11.421875 C 6.007812 -11.929688 4.765625 -12.769531 3.703125 -13.9375 C 2.640625 -15.101562 2.109375 -16.6875 2.109375 -18.6875 C 2.109375 -21.613281 3.238281 -23.769531 5.5 -25.15625 C 7.769531 -26.550781 10.644531 -27.25 14.125 -27.25 Z M 14.125 -27.25" />
            </g>
        </g>
    </g>
    <g fill-opacity="0.4" fill="#fc8c06">
        <g transform="translate(45.486256, 248.600681)">
            <g>
                <path d="M 17.25 0 L 16.734375 -3.109375 C 15.929688 -1.992188 14.875 -1.117188 13.5625 -0.484375 C 12.25 0.148438 10.867188 0.46875 9.421875 0.46875 C 7.035156 0.46875 5.242188 -0.191406 4.046875 -1.515625 C 2.847656 -2.835938 2.25 -4.742188 2.25 -7.234375 L 2.25 -20.546875 L 10 -20.546875 L 10 -8.171875 C 10 -7.285156 10.222656 -6.578125 10.671875 -6.046875 C 11.128906 -5.515625 11.773438 -5.25 12.609375 -5.25 C 13.566406 -5.25 14.34375 -5.5625 14.9375 -6.1875 C 15.539062 -6.8125 15.84375 -7.578125 15.84375 -8.484375 L 15.84375 -20.546875 L 23.59375 -20.546875 L 23.59375 0 Z M 17.25 0" />
            </g>
        </g>
    </g>
    <g fill-opacity="0.4" fill="#fc8c06">
        <g transform="translate(71.859458, 248.600681)">
            <g>
                <path d="M 15.875 -21.015625 C 18.65625 -21.015625 20.796875 -20.101562 22.296875 -18.28125 C 23.804688 -16.46875 24.5625 -13.785156 24.5625 -10.234375 C 24.5625 -6.703125 23.804688 -4.035156 22.296875 -2.234375 C 20.796875 -0.429688 18.65625 0.46875 15.875 0.46875 C 13.488281 0.46875 11.570312 -0.3125 10.125 -1.875 L 10.125 7.671875 L 2.375 7.671875 L 2.375 -20.546875 L 8.671875 -20.546875 L 9.34375 -17.625 C 10.84375 -19.882812 13.019531 -21.015625 15.875 -21.015625 Z M 13.46875 -15.296875 C 12.320312 -15.296875 11.460938 -14.894531 10.890625 -14.09375 C 10.328125 -13.289062 10.046875 -12.238281 10.046875 -10.9375 L 10.046875 -9.65625 C 10.046875 -8.351562 10.328125 -7.289062 10.890625 -6.46875 C 11.460938 -5.65625 12.320312 -5.25 13.46875 -5.25 C 15.695312 -5.25 16.8125 -6.585938 16.8125 -9.265625 L 16.8125 -11.328125 C 16.8125 -13.972656 15.695312 -15.296875 13.46875 -15.296875 Z M 13.46875 -15.296875" />
            </g>
        </g>
    </g>
    <g fill-opacity="0.4" fill="#fc8c06">
        <g transform="translate(98.23266, 248.600681)">
            <g>
                <path d="M 12.96875 -21.015625 C 16.726562 -21.015625 19.597656 -20.128906 21.578125 -18.359375 C 23.566406 -16.597656 24.5625 -13.90625 24.5625 -10.28125 L 24.5625 -8.953125 L 9.140625 -8.953125 C 9.140625 -7.472656 9.46875 -6.351562 10.125 -5.59375 C 10.789062 -4.84375 11.835938 -4.46875 13.265625 -4.46875 C 14.566406 -4.46875 15.519531 -4.738281 16.125 -5.28125 C 16.738281 -5.832031 17.046875 -6.5625 17.046875 -7.46875 L 24.5625 -7.46875 C 24.5625 -4.976562 23.613281 -3.03125 21.71875 -1.625 C 19.820312 -0.226562 17.054688 0.46875 13.421875 0.46875 C 9.609375 0.46875 6.648438 -0.414062 4.546875 -2.1875 C 2.453125 -3.96875 1.40625 -6.664062 1.40625 -10.28125 C 1.40625 -13.800781 2.425781 -16.46875 4.46875 -18.28125 C 6.519531 -20.101562 9.351562 -21.015625 12.96875 -21.015625 Z M 13.265625 -16.078125 C 10.828125 -16.078125 9.46875 -14.921875 9.1875 -12.609375 L 16.734375 -12.609375 C 16.734375 -13.671875 16.425781 -14.515625 15.8125 -15.140625 C 15.207031 -15.765625 14.359375 -16.078125 13.265625 -16.078125 Z M 13.265625 -16.078125" />
            </g>
        </g>
    </g>
    <g fill-opacity="0.4" fill="#fc8c06">
        <g transform="translate(124.605862, 248.600681)">
            <g>
                <path d="M 14.828125 -21.0625 C 15.421875 -21.0625 15.953125 -20.988281 16.421875 -20.84375 C 16.890625 -20.695312 17.125 -20.613281 17.125 -20.59375 L 17.125 -14.09375 L 14.640625 -14.09375 C 13.023438 -14.09375 11.859375 -13.675781 11.140625 -12.84375 C 10.429688 -12.007812 10.078125 -10.773438 10.078125 -9.140625 L 10.078125 0 L 2.328125 0 L 2.328125 -20.546875 L 8.671875 -20.546875 L 9.1875 -17.4375 C 9.65625 -18.632812 10.394531 -19.535156 11.40625 -20.140625 C 12.414062 -20.753906 13.554688 -21.0625 14.828125 -21.0625 Z M 14.828125 -21.0625" />
            </g>
        </g>
    </g>
    <g fill-opacity="1" fill="#e60012">
        <g transform="translate(16.973672, 248.600681)">
            <g>
                <path d="M 14.125 -27.25 C 17.550781 -27.25 20.367188 -26.550781 22.578125 -25.15625 C 24.785156 -23.769531 25.910156 -21.71875 25.953125 -19 L 25.953125 -18.53125 L 17.90625 -18.53125 L 17.90625 -18.6875 C 17.90625 -19.457031 17.617188 -20.101562 17.046875 -20.625 C 16.472656 -21.144531 15.601562 -21.40625 14.4375 -21.40625 C 13.300781 -21.40625 12.425781 -21.234375 11.8125 -20.890625 C 11.195312 -20.554688 10.890625 -20.144531 10.890625 -19.65625 C 10.890625 -18.957031 11.304688 -18.4375 12.140625 -18.09375 C 12.972656 -17.757812 14.3125 -17.410156 16.15625 -17.046875 C 18.3125 -16.609375 20.082031 -16.148438 21.46875 -15.671875 C 22.851562 -15.191406 24.0625 -14.40625 25.09375 -13.3125 C 26.132812 -12.21875 26.671875 -10.738281 26.703125 -8.875 C 26.703125 -5.707031 25.628906 -3.359375 23.484375 -1.828125 C 21.347656 -0.296875 18.488281 0.46875 14.90625 0.46875 C 10.726562 0.46875 7.476562 -0.226562 5.15625 -1.625 C 2.832031 -3.03125 1.671875 -5.507812 1.671875 -9.0625 L 9.8125 -9.0625 C 9.8125 -7.71875 10.160156 -6.816406 10.859375 -6.359375 C 11.554688 -5.910156 12.644531 -5.6875 14.125 -5.6875 C 15.21875 -5.6875 16.117188 -5.800781 16.828125 -6.03125 C 17.546875 -6.269531 17.90625 -6.75 17.90625 -7.46875 C 17.90625 -8.125 17.507812 -8.613281 16.71875 -8.9375 C 15.925781 -9.257812 14.632812 -9.601562 12.84375 -9.96875 C 10.664062 -10.4375 8.863281 -10.921875 7.4375 -11.421875 C 6.007812 -11.929688 4.765625 -12.769531 3.703125 -13.9375 C 2.640625 -15.101562 2.109375 -16.6875 2.109375 -18.6875 C 2.109375 -21.613281 3.238281 -23.769531 5.5 -25.15625 C 7.769531 -26.550781 10.644531 -27.25 14.125 -27.25 Z M 14.125 -27.25" />
            </g>
        </g>
    </g>
    <g fill-opacity="1" fill="#e60012">
        <g transform="translate(45.486256, 248.600681)">
            <g>
                <path d="M 17.25 0 L 16.734375 -3.109375 C 15.929688 -1.992188 14.875 -1.117188 13.5625 -0.484375 C 12.25 0.148438 10.867188 0.46875 9.421875 0.46875 C 7.035156 0.46875 5.242188 -0.191406 4.046875 -1.515625 C 2.847656 -2.835938 2.25 -4.742188 2.25 -7.234375 L 2.25 -20.546875 L 10 -20.546875 L 10 -8.171875 C 10 -7.285156 10.222656 -6.578125 10.671875 -6.046875 C 11.128906 -5.515625 11.773438 -5.25 12.609375 -5.25 C 13.566406 -5.25 14.34375 -5.5625 14.9375 -6.1875 C 15.539062 -6.8125 15.84375 -7.578125 15.84375 -8.484375 L 15.84375 -20.546875 L 23.59375 -20.546875 L 23.59375 0 Z M 17.25 0" />
            </g>
        </g>
    </g>
    <g fill-opacity="1" fill="#e60012">
        <g transform="translate(71.859458, 248.600681)">
            <g>
                <path d="M 15.875 -21.015625 C 18.65625 -21.015625 20.796875 -20.101562 22.296875 -18.28125 C 23.804688 -16.46875 24.5625 -13.785156 24.5625 -10.234375 C 24.5625 -6.703125 23.804688 -4.035156 22.296875 -2.234375 C 20.796875 -0.429688 18.65625 0.46875 15.875 0.46875 C 13.488281 0.46875 11.570312 -0.3125 10.125 -1.875 L 10.125 7.671875 L 2.375 7.671875 L 2.375 -20.546875 L 8.671875 -20.546875 L 9.34375 -17.625 C 10.84375 -19.882812 13.019531 -21.015625 15.875 -21.015625 Z M 13.46875 -15.296875 C 12.320312 -15.296875 11.460938 -14.894531 10.890625 -14.09375 C 10.328125 -13.289062 10.046875 -12.238281 10.046875 -10.9375 L 10.046875 -9.65625 C 10.046875 -8.351562 10.328125 -7.289062 10.890625 -6.46875 C 11.460938 -5.65625 12.320312 -5.25 13.46875 -5.25 C 15.695312 -5.25 16.8125 -6.585938 16.8125 -9.265625 L 16.8125 -11.328125 C 16.8125 -13.972656 15.695312 -15.296875 13.46875 -15.296875 Z M 13.46875 -15.296875" />
            </g>
        </g>
    </g>
    <g fill-opacity="1" fill="#e60012">
        <g transform="translate(98.23266, 248.600681)">
            <g>
                <path d="M 12.96875 -21.015625 C 16.726562 -21.015625 19.597656 -20.128906 21.578125 -18.359375 C 23.566406 -16.597656 24.5625 -13.90625 24.5625 -10.28125 L 24.5625 -8.953125 L 9.140625 -8.953125 C 9.140625 -7.472656 9.46875 -6.351562 10.125 -5.59375 C 10.789062 -4.84375 11.835938 -4.46875 13.265625 -4.46875 C 14.566406 -4.46875 15.519531 -4.738281 16.125 -5.28125 C 16.738281 -5.832031 17.046875 -6.5625 17.046875 -7.46875 L 24.5625 -7.46875 C 24.5625 -4.976562 23.613281 -3.03125 21.71875 -1.625 C 19.820312 -0.226562 17.054688 0.46875 13.421875 0.46875 C 9.609375 0.46875 6.648438 -0.414062 4.546875 -2.1875 C 2.453125 -3.96875 1.40625 -6.664062 1.40625 -10.28125 C 1.40625 -13.800781 2.425781 -16.46875 4.46875 -18.28125 C 6.519531 -20.101562 9.351562 -21.015625 12.96875 -21.015625 Z M 13.265625 -16.078125 C 10.828125 -16.078125 9.46875 -14.921875 9.1875 -12.609375 L 16.734375 -12.609375 C 16.734375 -13.671875 16.425781 -14.515625 15.8125 -15.140625 C 15.207031 -15.765625 14.359375 -16.078125 13.265625 -16.078125 Z M 13.265625 -16.078125" />
            </g>
        </g>
    </g>
    <g fill-opacity="1" fill="#e60012">
        <g transform="translate(124.605862, 248.600681)">
            <g>
                <path d="M 14.828125 -21.0625 C 15.421875 -21.0625 15.953125 -20.988281 16.421875 -20.84375 C 16.890625 -20.695312 17.125 -20.613281 17.125 -20.59375 L 17.125 -14.09375 L 14.640625 -14.09375 C 13.023438 -14.09375 11.859375 -13.675781 11.140625 -12.84375 C 10.429688 -12.007812 10.078125 -10.773438 10.078125 -9.140625 L 10.078125 0 L 2.328125 0 L 2.328125 -20.546875 L 8.671875 -20.546875 L 9.1875 -17.4375 C 9.65625 -18.632812 10.394531 -19.535156 11.40625 -20.140625 C 12.414062 -20.753906 13.554688 -21.0625 14.828125 -21.0625 Z M 14.828125 -21.0625" />
            </g>
        </g>
    </g>
    <g fill-opacity="0.4" fill="#fc8c06">
        <g transform="translate(267.455755, 250.360032)">
            <g>
                <path d="M 25.890625 0 L 25.890625 -9.65625 C 25.890625 -10.84375 25.929688 -12.066406 26.015625 -13.328125 C 26.109375 -14.585938 26.207031 -15.644531 26.3125 -16.5 C 26.414062 -17.351562 26.476562 -17.898438 26.5 -18.140625 L 26.34375 -18.140625 L 21.40625 0 L 14.671875 0 L 9.6875 -18.09375 L 9.53125 -18.09375 C 9.5625 -17.863281 9.632812 -17.328125 9.75 -16.484375 C 9.863281 -15.640625 9.972656 -14.585938 10.078125 -13.328125 C 10.179688 -12.066406 10.234375 -10.84375 10.234375 -9.65625 L 10.234375 0 L 2.328125 0 L 2.328125 -26.78125 L 14.484375 -26.78125 L 18.53125 -11.328125 L 18.6875 -11.328125 L 22.6875 -26.78125 L 34.40625 -26.78125 L 34.40625 0 Z M 25.890625 0" />
            </g>
        </g>
    </g>
    <g fill-opacity="0.4" fill="#fc8c06">
        <g transform="translate(304.603722, 250.360032)">
            <g>
                <path d="M 12.5 -21.015625 C 15.632812 -21.015625 18.1875 -20.488281 20.15625 -19.4375 C 22.132812 -18.382812 23.125 -16.679688 23.125 -14.328125 L 23.125 -6.3125 C 23.125 -5.863281 23.226562 -5.492188 23.4375 -5.203125 C 23.644531 -4.921875 23.953125 -4.78125 24.359375 -4.78125 L 25.765625 -4.78125 L 25.765625 -0.3125 C 25.691406 -0.257812 25.488281 -0.175781 25.15625 -0.0625 C 24.832031 0.0507812 24.375 0.164062 23.78125 0.28125 C 23.1875 0.40625 22.5 0.46875 21.71875 0.46875 C 20.207031 0.46875 18.96875 0.242188 18 -0.203125 C 17.03125 -0.660156 16.363281 -1.296875 16 -2.109375 C 15.007812 -1.328125 13.90625 -0.703125 12.6875 -0.234375 C 11.46875 0.234375 10.039062 0.46875 8.40625 0.46875 C 3.582031 0.46875 1.171875 -1.453125 1.171875 -5.296875 C 1.171875 -7.296875 1.707031 -8.816406 2.78125 -9.859375 C 3.851562 -10.910156 5.398438 -11.628906 7.421875 -12.015625 C 9.453125 -12.410156 12.101562 -12.609375 15.375 -12.609375 L 15.375 -13.625 C 15.375 -14.425781 15.09375 -15.035156 14.53125 -15.453125 C 13.976562 -15.867188 13.257812 -16.078125 12.375 -16.078125 C 11.570312 -16.078125 10.878906 -15.929688 10.296875 -15.640625 C 9.710938 -15.359375 9.421875 -14.90625 9.421875 -14.28125 L 9.421875 -14.125 L 1.796875 -14.125 C 1.765625 -14.257812 1.75 -14.441406 1.75 -14.671875 C 1.75 -16.617188 2.675781 -18.160156 4.53125 -19.296875 C 6.382812 -20.441406 9.039062 -21.015625 12.5 -21.015625 Z M 15.375 -8.953125 C 13.164062 -8.953125 11.535156 -8.710938 10.484375 -8.234375 C 9.429688 -7.753906 8.90625 -7.113281 8.90625 -6.3125 C 8.90625 -5.007812 9.789062 -4.359375 11.5625 -4.359375 C 12.570312 -4.359375 13.457031 -4.628906 14.21875 -5.171875 C 14.988281 -5.722656 15.375 -6.398438 15.375 -7.203125 Z M 15.375 -8.953125" />
            </g>
        </g>
    </g>
    <g fill-opacity="0.4" fill="#fc8c06">
        <g transform="translate(330.976924, 250.360032)">
            <g>
                <path d="M 14.828125 -21.0625 C 15.421875 -21.0625 15.953125 -20.988281 16.421875 -20.84375 C 16.890625 -20.695312 17.125 -20.613281 17.125 -20.59375 L 17.125 -14.09375 L 14.640625 -14.09375 C 13.023438 -14.09375 11.859375 -13.675781 11.140625 -12.84375 C 10.429688 -12.007812 10.078125 -10.773438 10.078125 -9.140625 L 10.078125 0 L 2.328125 0 L 2.328125 -20.546875 L 8.671875 -20.546875 L 9.1875 -17.4375 C 9.65625 -18.632812 10.394531 -19.535156 11.40625 -20.140625 C 12.414062 -20.753906 13.554688 -21.0625 14.828125 -21.0625 Z M 14.828125 -21.0625" />
            </g>
        </g>
    </g>
    <g fill-opacity="0.4" fill="#fc8c06">
        <g transform="translate(348.675844, 250.360032)">
            <g>
                <path d="M 16.03125 -20.546875 L 16.03125 -15.296875 L 11.671875 -15.296875 L 11.671875 -7.46875 C 11.671875 -6.539062 11.828125 -5.859375 12.140625 -5.421875 C 12.453125 -4.992188 13.023438 -4.78125 13.859375 -4.78125 L 16.03125 -4.78125 L 16.03125 -0.234375 C 15.414062 -0.0234375 14.613281 0.140625 13.625 0.265625 C 12.632812 0.398438 11.773438 0.46875 11.046875 0.46875 C 8.765625 0.46875 7.007812 0.0507812 5.78125 -0.78125 C 4.550781 -1.613281 3.9375 -3.023438 3.9375 -5.015625 L 3.9375 -15.296875 L 1.046875 -15.296875 L 1.046875 -20.546875 L 4.25 -20.546875 L 5.921875 -26.78125 L 11.671875 -26.78125 L 11.671875 -20.546875 Z M 16.03125 -20.546875" />
            </g>
        </g>
    </g>
    <g fill-opacity="1" fill="#e60012">
        <g transform="translate(267.455755, 250.360032)">
            <g>
                <path d="M 25.890625 0 L 25.890625 -9.65625 C 25.890625 -10.84375 25.929688 -12.066406 26.015625 -13.328125 C 26.109375 -14.585938 26.207031 -15.644531 26.3125 -16.5 C 26.414062 -17.351562 26.476562 -17.898438 26.5 -18.140625 L 26.34375 -18.140625 L 21.40625 0 L 14.671875 0 L 9.6875 -18.09375 L 9.53125 -18.09375 C 9.5625 -17.863281 9.632812 -17.328125 9.75 -16.484375 C 9.863281 -15.640625 9.972656 -14.585938 10.078125 -13.328125 C 10.179688 -12.066406 10.234375 -10.84375 10.234375 -9.65625 L 10.234375 0 L 2.328125 0 L 2.328125 -26.78125 L 14.484375 -26.78125 L 18.53125 -11.328125 L 18.6875 -11.328125 L 22.6875 -26.78125 L 34.40625 -26.78125 L 34.40625 0 Z M 25.890625 0" />
            </g>
        </g>
    </g>
    <g fill-opacity="1" fill="#e60012">
        <g transform="translate(304.603722, 250.360032)">
            <g>
                <path d="M 12.5 -21.015625 C 15.632812 -21.015625 18.1875 -20.488281 20.15625 -19.4375 C 22.132812 -18.382812 23.125 -16.679688 23.125 -14.328125 L 23.125 -6.3125 C 23.125 -5.863281 23.226562 -5.492188 23.4375 -5.203125 C 23.644531 -4.921875 23.953125 -4.78125 24.359375 -4.78125 L 25.765625 -4.78125 L 25.765625 -0.3125 C 25.691406 -0.257812 25.488281 -0.175781 25.15625 -0.0625 C 24.832031 0.0507812 24.375 0.164062 23.78125 0.28125 C 23.1875 0.40625 22.5 0.46875 21.71875 0.46875 C 20.207031 0.46875 18.96875 0.242188 18 -0.203125 C 17.03125 -0.660156 16.363281 -1.296875 16 -2.109375 C 15.007812 -1.328125 13.90625 -0.703125 12.6875 -0.234375 C 11.46875 0.234375 10.039062 0.46875 8.40625 0.46875 C 3.582031 0.46875 1.171875 -1.453125 1.171875 -5.296875 C 1.171875 -7.296875 1.707031 -8.816406 2.78125 -9.859375 C 3.851562 -10.910156 5.398438 -11.628906 7.421875 -12.015625 C 9.453125 -12.410156 12.101562 -12.609375 15.375 -12.609375 L 15.375 -13.625 C 15.375 -14.425781 15.09375 -15.035156 14.53125 -15.453125 C 13.976562 -15.867188 13.257812 -16.078125 12.375 -16.078125 C 11.570312 -16.078125 10.878906 -15.929688 10.296875 -15.640625 C 9.710938 -15.359375 9.421875 -14.90625 9.421875 -14.28125 L 9.421875 -14.125 L 1.796875 -14.125 C 1.765625 -14.257812 1.75 -14.441406 1.75 -14.671875 C 1.75 -16.617188 2.675781 -18.160156 4.53125 -19.296875 C 6.382812 -20.441406 9.039062 -21.015625 12.5 -21.015625 Z M 15.375 -8.953125 C 13.164062 -8.953125 11.535156 -8.710938 10.484375 -8.234375 C 9.429688 -7.753906 8.90625 -7.113281 8.90625 -6.3125 C 8.90625 -5.007812 9.789062 -4.359375 11.5625 -4.359375 C 12.570312 -4.359375 13.457031 -4.628906 14.21875 -5.171875 C 14.988281 -5.722656 15.375 -6.398438 15.375 -7.203125 Z M 15.375 -8.953125" />
            </g>
        </g>
    </g>
    <g fill-opacity="1" fill="#e60012">
        <g transform="translate(330.976924, 250.360032)">
            <g>
                <path d="M 14.828125 -21.0625 C 15.421875 -21.0625 15.953125 -20.988281 16.421875 -20.84375 C 16.890625 -20.695312 17.125 -20.613281 17.125 -20.59375 L 17.125 -14.09375 L 14.640625 -14.09375 C 13.023438 -14.09375 11.859375 -13.675781 11.140625 -12.84375 C 10.429688 -12.007812 10.078125 -10.773438 10.078125 -9.140625 L 10.078125 0 L 2.328125 0 L 2.328125 -20.546875 L 8.671875 -20.546875 L 9.1875 -17.4375 C 9.65625 -18.632812 10.394531 -19.535156 11.40625 -20.140625 C 12.414062 -20.753906 13.554688 -21.0625 14.828125 -21.0625 Z M 14.828125 -21.0625" />
            </g>
        </g>
    </g>
    <g fill-opacity="1" fill="#e60012">
        <g transform="translate(348.675844, 250.360032)">
            <g>
                <path d="M 16.03125 -20.546875 L 16.03125 -15.296875 L 11.671875 -15.296875 L 11.671875 -7.46875 C 11.671875 -6.539062 11.828125 -5.859375 12.140625 -5.421875 C 12.453125 -4.992188 13.023438 -4.78125 13.859375 -4.78125 L 16.03125 -4.78125 L 16.03125 -0.234375 C 15.414062 -0.0234375 14.613281 0.140625 13.625 0.265625 C 12.632812 0.398438 11.773438 0.46875 11.046875 0.46875 C 8.765625 0.46875 7.007812 0.0507812 5.78125 -0.78125 C 4.550781 -1.613281 3.9375 -3.023438 3.9375 -5.015625 L 3.9375 -15.296875 L 1.046875 -15.296875 L 1.046875 -20.546875 L 4.25 -20.546875 L 5.921875 -26.78125 L 11.671875 -26.78125 L 11.671875 -20.546875 Z M 16.03125 -20.546875" />
            </g>
        </g>
    </g>
</svg>